<svg xmlns="http://www.w3.org/2000/svg" width="432" height="152" viewBox="0 0 432 152" role="img" aria-labelledby="title-arguments desc-arguments">
<title id="title-arguments">&lt;arguments&gt; syntax diagram</title>
<desc id="desc-arguments">Syntax diagram for &lt;arguments&gt; generated from the grammar reference.</desc>
<rect x="0.5" y="0.5" width="431" height="151" rx="18" fill="#fbfcfe" stroke="#d6deea"/>
<text x="28" y="28" fill="#14324a" font-family="ui-monospace, SFMono-Regular, Menlo, Consolas, monospace" font-size="20" font-weight="700">&lt;arguments&gt;</text>
<line x1="28" y1="92" x2="46" y2="92" stroke="#6a7d95" stroke-width="2"/>
<rect x="46" y="78" width="114" height="28" rx="8" fill="#e9f2ff" stroke="#8cb0e8" stroke-width="1.5"/>
<text x="103.0" y="97" text-anchor="middle" fill="#123a6b" font-family="ui-monospace, SFMono-Regular, Menlo, Consolas, monospace" font-size="13">&lt;expression&gt;</text>
<line x1="160" y1="92" x2="178" y2="92" stroke="#6a7d95" stroke-width="2"/>
<line x1="178" y1="92" x2="196" y2="92" stroke="#6a7d95" stroke-width="2"/>
<line x1="368" y1="92" x2="386" y2="92" stroke="#6a7d95" stroke-width="2"/>
<rect x="196" y="78" width="40" height="28" rx="8" fill="#eef7ea" stroke="#8fbc8f" stroke-width="1.5"/>
<text x="216.0" y="97" text-anchor="middle" fill="#204b24" font-family="ui-monospace, SFMono-Regular, Menlo, Consolas, monospace" font-size="13">,</text>
<line x1="236" y1="92" x2="254" y2="92" stroke="#6a7d95" stroke-width="2"/>
<rect x="254" y="78" width="114" height="28" rx="8" fill="#e9f2ff" stroke="#8cb0e8" stroke-width="1.5"/>
<text x="311.0" y="97" text-anchor="middle" fill="#123a6b" font-family="ui-monospace, SFMono-Regular, Menlo, Consolas, monospace" font-size="13">&lt;expression&gt;</text>
<path d="M 178 92 A 6 6 0 0 0 184 86 L 184 72 A 6 6 0 0 1 190 66 L 374 66 A 6 6 0 0 1 380 72 L 380 86 A 6 6 0 0 0 386 92" fill="none" stroke="#6a7d95" stroke-width="2"/>
<polygon points="212,61 202,66 212,71" fill="#6a7d95"/>
<line x1="386" y1="92" x2="404" y2="92" stroke="#6a7d95" stroke-width="2"/>
<circle cx="22" cy="92" r="4.5" fill="#6a7d95"/>
<circle cx="410" cy="92" r="4.5" fill="#6a7d95"/>
</svg>
