<svg xmlns="http://www.w3.org/2000/svg" width="362" height="180" viewBox="0 0 362 180" role="img" aria-labelledby="title-array_type desc-array_type">
<title id="title-array_type">&lt;array-type&gt; syntax diagram</title>
<desc id="desc-array_type">Syntax diagram for &lt;array-type&gt; generated from the grammar reference.</desc>
<rect x="0.5" y="0.5" width="361" height="179" rx="18" fill="#fbfcfe" stroke="#d6deea"/>
<text x="28" y="28" fill="#14324a" font-family="ui-monospace, SFMono-Regular, Menlo, Consolas, monospace" font-size="20" font-weight="700">&lt;array-type&gt;</text>
<line x1="28" y1="70" x2="46" y2="70" stroke="#6a7d95" stroke-width="2"/>
<rect x="46" y="56" width="58" height="28" rx="8" fill="#eef7ea" stroke="#8fbc8f" stroke-width="1.5"/>
<text x="75.0" y="75" text-anchor="middle" fill="#204b24" font-family="ui-monospace, SFMono-Regular, Menlo, Consolas, monospace" font-size="13">array</text>
<line x1="104" y1="70" x2="122" y2="70" stroke="#6a7d95" stroke-width="2"/>
<rect x="122" y="56" width="40" height="28" rx="8" fill="#eef7ea" stroke="#8fbc8f" stroke-width="1.5"/>
<text x="142.0" y="75" text-anchor="middle" fill="#204b24" font-family="ui-monospace, SFMono-Regular, Menlo, Consolas, monospace" font-size="13">&lt;</text>
<line x1="162" y1="70" x2="180" y2="70" stroke="#6a7d95" stroke-width="2"/>
<rect x="198" y="56" width="42" height="28" rx="8" fill="#eef7ea" stroke="#8fbc8f" stroke-width="1.5"/>
<text x="219.0" y="75" text-anchor="middle" fill="#204b24" font-family="ui-monospace, SFMono-Regular, Menlo, Consolas, monospace" font-size="13">int</text>
<line x1="180" y1="70" x2="198" y2="70" stroke="#6a7d95" stroke-width="2"/>
<line x1="240" y1="70" x2="258" y2="70" stroke="#6a7d95" stroke-width="2"/>
<rect x="198" y="106" width="42" height="28" rx="8" fill="#eef7ea" stroke="#8fbc8f" stroke-width="1.5"/>
<text x="219.0" y="125" text-anchor="middle" fill="#204b24" font-family="ui-monospace, SFMono-Regular, Menlo, Consolas, monospace" font-size="13">str</text>
<path d="M 180 70 A 6 6 0 0 1 186 76 L 186 114 A 6 6 0 0 0 192 120 L 198 120" fill="none" stroke="#6a7d95" stroke-width="2"/>
<path d="M 240 120 L 246 120 A 6 6 0 0 0 252 114 L 252 76 A 6 6 0 0 1 258 70 " fill="none" stroke="#6a7d95" stroke-width="2"/>
<line x1="258" y1="70" x2="276" y2="70" stroke="#6a7d95" stroke-width="2"/>
<rect x="276" y="56" width="40" height="28" rx="8" fill="#eef7ea" stroke="#8fbc8f" stroke-width="1.5"/>
<text x="296.0" y="75" text-anchor="middle" fill="#204b24" font-family="ui-monospace, SFMono-Regular, Menlo, Consolas, monospace" font-size="13">&gt;</text>
<line x1="316" y1="70" x2="334" y2="70" stroke="#6a7d95" stroke-width="2"/>
<circle cx="22" cy="70" r="4.5" fill="#6a7d95"/>
<circle cx="340" cy="70" r="4.5" fill="#6a7d95"/>
</svg>
