<svg xmlns="http://www.w3.org/2000/svg" width="242" height="180" viewBox="0 0 242 180" role="img" aria-labelledby="title-assignment_target desc-assignment_target">
<title id="title-assignment_target">&lt;assignment-target&gt; syntax diagram</title>
<desc id="desc-assignment_target">Syntax diagram for &lt;assignment-target&gt; generated from the grammar reference.</desc>
<rect x="0.5" y="0.5" width="241" height="179" rx="18" fill="#fbfcfe" stroke="#d6deea"/>
<text x="28" y="28" fill="#14324a" font-family="ui-monospace, SFMono-Regular, Menlo, Consolas, monospace" font-size="20" font-weight="700">&lt;assignment-target&gt;</text>
<line x1="28" y1="70" x2="46" y2="70" stroke="#6a7d95" stroke-width="2"/>
<rect x="64" y="56" width="114" height="28" rx="8" fill="#e9f2ff" stroke="#8cb0e8" stroke-width="1.5"/>
<text x="121.0" y="75" text-anchor="middle" fill="#123a6b" font-family="ui-monospace, SFMono-Regular, Menlo, Consolas, monospace" font-size="13">&lt;identifier&gt;</text>
<line x1="46" y1="70" x2="64" y2="70" stroke="#6a7d95" stroke-width="2"/>
<line x1="178" y1="70" x2="196" y2="70" stroke="#6a7d95" stroke-width="2"/>
<rect x="64" y="106" width="114" height="28" rx="8" fill="#e9f2ff" stroke="#8cb0e8" stroke-width="1.5"/>
<text x="121.0" y="125" text-anchor="middle" fill="#123a6b" font-family="ui-monospace, SFMono-Regular, Menlo, Consolas, monospace" font-size="13">&lt;index-expr&gt;</text>
<path d="M 46 70 A 6 6 0 0 1 52 76 L 52 114 A 6 6 0 0 0 58 120 L 64 120" fill="none" stroke="#6a7d95" stroke-width="2"/>
<path d="M 178 120 L 184 120 A 6 6 0 0 0 190 114 L 190 76 A 6 6 0 0 1 196 70 " fill="none" stroke="#6a7d95" stroke-width="2"/>
<line x1="196" y1="70" x2="214" y2="70" stroke="#6a7d95" stroke-width="2"/>
<circle cx="22" cy="70" r="4.5" fill="#6a7d95"/>
<circle cx="220" cy="70" r="4.5" fill="#6a7d95"/>
</svg>
