<svg xmlns="http://www.w3.org/2000/svg" width="196" height="380" viewBox="0 0 196 380" role="img" aria-labelledby="title-assignment_op desc-assignment_op">
<title id="title-assignment_op">&lt;assignment-op&gt; syntax diagram</title>
<desc id="desc-assignment_op">Syntax diagram for &lt;assignment-op&gt; generated from the grammar reference.</desc>
<rect x="0.5" y="0.5" width="195" height="379" rx="18" fill="#fbfcfe" stroke="#d6deea"/>
<text x="28" y="28" fill="#14324a" font-family="ui-monospace, SFMono-Regular, Menlo, Consolas, monospace" font-size="20" font-weight="700">&lt;assignment-op&gt;</text>
<line x1="28" y1="70" x2="46" y2="70" stroke="#6a7d95" stroke-width="2"/>
<rect x="64" y="56" width="40" height="28" rx="8" fill="#eef7ea" stroke="#8fbc8f" stroke-width="1.5"/>
<text x="84.0" y="75" text-anchor="middle" fill="#204b24" font-family="ui-monospace, SFMono-Regular, Menlo, Consolas, monospace" font-size="13">=</text>
<line x1="46" y1="70" x2="64" y2="70" stroke="#6a7d95" stroke-width="2"/>
<line x1="104" y1="70" x2="122" y2="70" stroke="#6a7d95" stroke-width="2"/>
<rect x="64" y="106" width="40" height="28" rx="8" fill="#eef7ea" stroke="#8fbc8f" stroke-width="1.5"/>
<text x="84.0" y="125" text-anchor="middle" fill="#204b24" font-family="ui-monospace, SFMono-Regular, Menlo, Consolas, monospace" font-size="13">+=</text>
<path d="M 46 70 A 6 6 0 0 1 52 76 L 52 114 A 6 6 0 0 0 58 120 L 64 120" fill="none" stroke="#6a7d95" stroke-width="2"/>
<path d="M 104 120 L 110 120 A 6 6 0 0 0 116 114 L 116 76 A 6 6 0 0 1 122 70 " fill="none" stroke="#6a7d95" stroke-width="2"/>
<rect x="64" y="156" width="40" height="28" rx="8" fill="#eef7ea" stroke="#8fbc8f" stroke-width="1.5"/>
<text x="84.0" y="175" text-anchor="middle" fill="#204b24" font-family="ui-monospace, SFMono-Regular, Menlo, Consolas, monospace" font-size="13">-=</text>
<path d="M 46 70 A 6 6 0 0 1 52 76 L 52 164 A 6 6 0 0 0 58 170 L 64 170" fill="none" stroke="#6a7d95" stroke-width="2"/>
<path d="M 104 170 L 110 170 A 6 6 0 0 0 116 164 L 116 76 A 6 6 0 0 1 122 70 " fill="none" stroke="#6a7d95" stroke-width="2"/>
<rect x="64" y="206" width="40" height="28" rx="8" fill="#eef7ea" stroke="#8fbc8f" stroke-width="1.5"/>
<text x="84.0" y="225" text-anchor="middle" fill="#204b24" font-family="ui-monospace, SFMono-Regular, Menlo, Consolas, monospace" font-size="13">*=</text>
<path d="M 46 70 A 6 6 0 0 1 52 76 L 52 214 A 6 6 0 0 0 58 220 L 64 220" fill="none" stroke="#6a7d95" stroke-width="2"/>
<path d="M 104 220 L 110 220 A 6 6 0 0 0 116 214 L 116 76 A 6 6 0 0 1 122 70 " fill="none" stroke="#6a7d95" stroke-width="2"/>
<rect x="64" y="256" width="40" height="28" rx="8" fill="#eef7ea" stroke="#8fbc8f" stroke-width="1.5"/>
<text x="84.0" y="275" text-anchor="middle" fill="#204b24" font-family="ui-monospace, SFMono-Regular, Menlo, Consolas, monospace" font-size="13">/=</text>
<path d="M 46 70 A 6 6 0 0 1 52 76 L 52 264 A 6 6 0 0 0 58 270 L 64 270" fill="none" stroke="#6a7d95" stroke-width="2"/>
<path d="M 104 270 L 110 270 A 6 6 0 0 0 116 264 L 116 76 A 6 6 0 0 1 122 70 " fill="none" stroke="#6a7d95" stroke-width="2"/>
<rect x="64" y="306" width="40" height="28" rx="8" fill="#eef7ea" stroke="#8fbc8f" stroke-width="1.5"/>
<text x="84.0" y="325" text-anchor="middle" fill="#204b24" font-family="ui-monospace, SFMono-Regular, Menlo, Consolas, monospace" font-size="13">^=</text>
<path d="M 46 70 A 6 6 0 0 1 52 76 L 52 314 A 6 6 0 0 0 58 320 L 64 320" fill="none" stroke="#6a7d95" stroke-width="2"/>
<path d="M 104 320 L 110 320 A 6 6 0 0 0 116 314 L 116 76 A 6 6 0 0 1 122 70 " fill="none" stroke="#6a7d95" stroke-width="2"/>
<line x1="122" y1="70" x2="140" y2="70" stroke="#6a7d95" stroke-width="2"/>
<circle cx="22" cy="70" r="4.5" fill="#6a7d95"/>
<circle cx="146" cy="70" r="4.5" fill="#6a7d95"/>
</svg>
