<svg xmlns="http://www.w3.org/2000/svg" width="350" height="152" viewBox="0 0 350 152" role="img" aria-labelledby="title-block desc-block">
<title id="title-block">&lt;block&gt; syntax diagram</title>
<desc id="desc-block">Syntax diagram for &lt;block&gt; generated from the grammar reference.</desc>
<rect x="0.5" y="0.5" width="349" height="151" rx="18" fill="#fbfcfe" stroke="#d6deea"/>
<text x="28" y="28" fill="#14324a" font-family="ui-monospace, SFMono-Regular, Menlo, Consolas, monospace" font-size="20" font-weight="700">&lt;block&gt;</text>
<line x1="28" y1="92" x2="46" y2="92" stroke="#6a7d95" stroke-width="2"/>
<rect x="46" y="78" width="40" height="28" rx="8" fill="#eef7ea" stroke="#8fbc8f" stroke-width="1.5"/>
<text x="66.0" y="97" text-anchor="middle" fill="#204b24" font-family="ui-monospace, SFMono-Regular, Menlo, Consolas, monospace" font-size="13">{</text>
<line x1="86" y1="92" x2="104" y2="92" stroke="#6a7d95" stroke-width="2"/>
<line x1="104" y1="92" x2="122" y2="92" stroke="#6a7d95" stroke-width="2"/>
<line x1="228" y1="92" x2="246" y2="92" stroke="#6a7d95" stroke-width="2"/>
<rect x="122" y="78" width="106" height="28" rx="8" fill="#e9f2ff" stroke="#8cb0e8" stroke-width="1.5"/>
<text x="175.0" y="97" text-anchor="middle" fill="#123a6b" font-family="ui-monospace, SFMono-Regular, Menlo, Consolas, monospace" font-size="13">&lt;statement&gt;</text>
<path d="M 104 92 L 104 72 A 6 6 0 0 1 110 66 L 240 66 A 6 6 0 0 1 246 72 L 246 92" fill="none" stroke="#6a7d95" stroke-width="2"/>
<polygon points="138,61 128,66 138,71" fill="#6a7d95"/>
<line x1="246" y1="92" x2="264" y2="92" stroke="#6a7d95" stroke-width="2"/>
<rect x="264" y="78" width="40" height="28" rx="8" fill="#eef7ea" stroke="#8fbc8f" stroke-width="1.5"/>
<text x="284.0" y="97" text-anchor="middle" fill="#204b24" font-family="ui-monospace, SFMono-Regular, Menlo, Consolas, monospace" font-size="13">}</text>
<line x1="304" y1="92" x2="322" y2="92" stroke="#6a7d95" stroke-width="2"/>
<circle cx="22" cy="92" r="4.5" fill="#6a7d95"/>
<circle cx="328" cy="92" r="4.5" fill="#6a7d95"/>
</svg>
