<svg xmlns="http://www.w3.org/2000/svg" width="822" height="130" viewBox="0 0 822 130" role="img" aria-labelledby="title-for_stmt desc-for_stmt">
<title id="title-for_stmt">&lt;for-stmt&gt; syntax diagram</title>
<desc id="desc-for_stmt">Syntax diagram for &lt;for-stmt&gt; generated from the grammar reference.</desc>
<rect x="0.5" y="0.5" width="821" height="129" rx="18" fill="#fbfcfe" stroke="#d6deea"/>
<text x="28" y="28" fill="#14324a" font-family="ui-monospace, SFMono-Regular, Menlo, Consolas, monospace" font-size="20" font-weight="700">&lt;for-stmt&gt;</text>
<line x1="28" y1="70" x2="46" y2="70" stroke="#6a7d95" stroke-width="2"/>
<rect x="46" y="56" width="42" height="28" rx="8" fill="#eef7ea" stroke="#8fbc8f" stroke-width="1.5"/>
<text x="67.0" y="75" text-anchor="middle" fill="#204b24" font-family="ui-monospace, SFMono-Regular, Menlo, Consolas, monospace" font-size="13">for</text>
<line x1="88" y1="70" x2="106" y2="70" stroke="#6a7d95" stroke-width="2"/>
<rect x="106" y="56" width="40" height="28" rx="8" fill="#eef7ea" stroke="#8fbc8f" stroke-width="1.5"/>
<text x="126.0" y="75" text-anchor="middle" fill="#204b24" font-family="ui-monospace, SFMono-Regular, Menlo, Consolas, monospace" font-size="13">(</text>
<line x1="146" y1="70" x2="164" y2="70" stroke="#6a7d95" stroke-width="2"/>
<rect x="164" y="56" width="98" height="28" rx="8" fill="#e9f2ff" stroke="#8cb0e8" stroke-width="1.5"/>
<text x="213.0" y="75" text-anchor="middle" fill="#123a6b" font-family="ui-monospace, SFMono-Regular, Menlo, Consolas, monospace" font-size="13">&lt;for-init&gt;</text>
<line x1="262" y1="70" x2="280" y2="70" stroke="#6a7d95" stroke-width="2"/>
<rect x="280" y="56" width="40" height="28" rx="8" fill="#eef7ea" stroke="#8fbc8f" stroke-width="1.5"/>
<text x="300.0" y="75" text-anchor="middle" fill="#204b24" font-family="ui-monospace, SFMono-Regular, Menlo, Consolas, monospace" font-size="13">;</text>
<line x1="320" y1="70" x2="338" y2="70" stroke="#6a7d95" stroke-width="2"/>
<rect x="338" y="56" width="114" height="28" rx="8" fill="#e9f2ff" stroke="#8cb0e8" stroke-width="1.5"/>
<text x="395.0" y="75" text-anchor="middle" fill="#123a6b" font-family="ui-monospace, SFMono-Regular, Menlo, Consolas, monospace" font-size="13">&lt;expression&gt;</text>
<line x1="452" y1="70" x2="470" y2="70" stroke="#6a7d95" stroke-width="2"/>
<rect x="470" y="56" width="40" height="28" rx="8" fill="#eef7ea" stroke="#8fbc8f" stroke-width="1.5"/>
<text x="490.0" y="75" text-anchor="middle" fill="#204b24" font-family="ui-monospace, SFMono-Regular, Menlo, Consolas, monospace" font-size="13">;</text>
<line x1="510" y1="70" x2="528" y2="70" stroke="#6a7d95" stroke-width="2"/>
<rect x="528" y="56" width="98" height="28" rx="8" fill="#e9f2ff" stroke="#8cb0e8" stroke-width="1.5"/>
<text x="577.0" y="75" text-anchor="middle" fill="#123a6b" font-family="ui-monospace, SFMono-Regular, Menlo, Consolas, monospace" font-size="13">&lt;for-iter&gt;</text>
<line x1="626" y1="70" x2="644" y2="70" stroke="#6a7d95" stroke-width="2"/>
<rect x="644" y="56" width="40" height="28" rx="8" fill="#eef7ea" stroke="#8fbc8f" stroke-width="1.5"/>
<text x="664.0" y="75" text-anchor="middle" fill="#204b24" font-family="ui-monospace, SFMono-Regular, Menlo, Consolas, monospace" font-size="13">)</text>
<line x1="684" y1="70" x2="702" y2="70" stroke="#6a7d95" stroke-width="2"/>
<rect x="702" y="56" width="74" height="28" rx="8" fill="#e9f2ff" stroke="#8cb0e8" stroke-width="1.5"/>
<text x="739.0" y="75" text-anchor="middle" fill="#123a6b" font-family="ui-monospace, SFMono-Regular, Menlo, Consolas, monospace" font-size="13">&lt;block&gt;</text>
<line x1="776" y1="70" x2="794" y2="70" stroke="#6a7d95" stroke-width="2"/>
<circle cx="22" cy="70" r="4.5" fill="#6a7d95"/>
<circle cx="800" cy="70" r="4.5" fill="#6a7d95"/>
</svg>
