<svg xmlns="http://www.w3.org/2000/svg" width="838" height="152" viewBox="0 0 838 152" role="img" aria-labelledby="title-function_decl desc-function_decl">
<title id="title-function_decl">&lt;function-decl&gt; syntax diagram</title>
<desc id="desc-function_decl">Syntax diagram for &lt;function-decl&gt; generated from the grammar reference.</desc>
<rect x="0.5" y="0.5" width="837" height="151" rx="18" fill="#fbfcfe" stroke="#d6deea"/>
<text x="28" y="28" fill="#14324a" font-family="ui-monospace, SFMono-Regular, Menlo, Consolas, monospace" font-size="20" font-weight="700">&lt;function-decl&gt;</text>
<line x1="28" y1="92" x2="46" y2="92" stroke="#6a7d95" stroke-width="2"/>
<rect x="46" y="78" width="40" height="28" rx="8" fill="#eef7ea" stroke="#8fbc8f" stroke-width="1.5"/>
<text x="66.0" y="97" text-anchor="middle" fill="#204b24" font-family="ui-monospace, SFMono-Regular, Menlo, Consolas, monospace" font-size="13">fn</text>
<line x1="86" y1="92" x2="104" y2="92" stroke="#6a7d95" stroke-width="2"/>
<rect x="104" y="78" width="114" height="28" rx="8" fill="#e9f2ff" stroke="#8cb0e8" stroke-width="1.5"/>
<text x="161.0" y="97" text-anchor="middle" fill="#123a6b" font-family="ui-monospace, SFMono-Regular, Menlo, Consolas, monospace" font-size="13">&lt;identifier&gt;</text>
<line x1="218" y1="92" x2="236" y2="92" stroke="#6a7d95" stroke-width="2"/>
<rect x="236" y="78" width="40" height="28" rx="8" fill="#eef7ea" stroke="#8fbc8f" stroke-width="1.5"/>
<text x="256.0" y="97" text-anchor="middle" fill="#204b24" font-family="ui-monospace, SFMono-Regular, Menlo, Consolas, monospace" font-size="13">(</text>
<line x1="276" y1="92" x2="294" y2="92" stroke="#6a7d95" stroke-width="2"/>
<line x1="294" y1="92" x2="312" y2="92" stroke="#6a7d95" stroke-width="2"/>
<line x1="426" y1="92" x2="444" y2="92" stroke="#6a7d95" stroke-width="2"/>
<rect x="312" y="78" width="114" height="28" rx="8" fill="#e9f2ff" stroke="#8cb0e8" stroke-width="1.5"/>
<text x="369.0" y="97" text-anchor="middle" fill="#123a6b" font-family="ui-monospace, SFMono-Regular, Menlo, Consolas, monospace" font-size="13">&lt;parameters&gt;</text>
<path d="M 294 92 A 6 6 0 0 0 300 86 L 300 72 A 6 6 0 0 1 306 66 L 432 66 A 6 6 0 0 1 438 72 L 438 86 A 6 6 0 0 0 444 92" fill="none" stroke="#6a7d95" stroke-width="2"/>
<line x1="444" y1="92" x2="462" y2="92" stroke="#6a7d95" stroke-width="2"/>
<rect x="462" y="78" width="40" height="28" rx="8" fill="#eef7ea" stroke="#8fbc8f" stroke-width="1.5"/>
<text x="482.0" y="97" text-anchor="middle" fill="#204b24" font-family="ui-monospace, SFMono-Regular, Menlo, Consolas, monospace" font-size="13">)</text>
<line x1="502" y1="92" x2="520" y2="92" stroke="#6a7d95" stroke-width="2"/>
<rect x="520" y="78" width="40" height="28" rx="8" fill="#eef7ea" stroke="#8fbc8f" stroke-width="1.5"/>
<text x="540.0" y="97" text-anchor="middle" fill="#204b24" font-family="ui-monospace, SFMono-Regular, Menlo, Consolas, monospace" font-size="13">-&gt;</text>
<line x1="560" y1="92" x2="578" y2="92" stroke="#6a7d95" stroke-width="2"/>
<rect x="578" y="78" width="122" height="28" rx="8" fill="#e9f2ff" stroke="#8cb0e8" stroke-width="1.5"/>
<text x="639.0" y="97" text-anchor="middle" fill="#123a6b" font-family="ui-monospace, SFMono-Regular, Menlo, Consolas, monospace" font-size="13">&lt;return-type&gt;</text>
<line x1="700" y1="92" x2="718" y2="92" stroke="#6a7d95" stroke-width="2"/>
<rect x="718" y="78" width="74" height="28" rx="8" fill="#e9f2ff" stroke="#8cb0e8" stroke-width="1.5"/>
<text x="755.0" y="97" text-anchor="middle" fill="#123a6b" font-family="ui-monospace, SFMono-Regular, Menlo, Consolas, monospace" font-size="13">&lt;block&gt;</text>
<line x1="792" y1="92" x2="810" y2="92" stroke="#6a7d95" stroke-width="2"/>
<circle cx="22" cy="92" r="4.5" fill="#6a7d95"/>
<circle cx="816" cy="92" r="4.5" fill="#6a7d95"/>
</svg>
