<svg xmlns="http://www.w3.org/2000/svg" width="668" height="152" viewBox="0 0 668 152" role="img" aria-labelledby="title-if_stmt desc-if_stmt">
<title id="title-if_stmt">&lt;if-stmt&gt; syntax diagram</title>
<desc id="desc-if_stmt">Syntax diagram for &lt;if-stmt&gt; generated from the grammar reference.</desc>
<rect x="0.5" y="0.5" width="667" height="151" rx="18" fill="#fbfcfe" stroke="#d6deea"/>
<text x="28" y="28" fill="#14324a" font-family="ui-monospace, SFMono-Regular, Menlo, Consolas, monospace" font-size="20" font-weight="700">&lt;if-stmt&gt;</text>
<line x1="28" y1="92" x2="46" y2="92" stroke="#6a7d95" stroke-width="2"/>
<rect x="46" y="78" width="40" height="28" rx="8" fill="#eef7ea" stroke="#8fbc8f" stroke-width="1.5"/>
<text x="66.0" y="97" text-anchor="middle" fill="#204b24" font-family="ui-monospace, SFMono-Regular, Menlo, Consolas, monospace" font-size="13">if</text>
<line x1="86" y1="92" x2="104" y2="92" stroke="#6a7d95" stroke-width="2"/>
<rect x="104" y="78" width="40" height="28" rx="8" fill="#eef7ea" stroke="#8fbc8f" stroke-width="1.5"/>
<text x="124.0" y="97" text-anchor="middle" fill="#204b24" font-family="ui-monospace, SFMono-Regular, Menlo, Consolas, monospace" font-size="13">(</text>
<line x1="144" y1="92" x2="162" y2="92" stroke="#6a7d95" stroke-width="2"/>
<rect x="162" y="78" width="114" height="28" rx="8" fill="#e9f2ff" stroke="#8cb0e8" stroke-width="1.5"/>
<text x="219.0" y="97" text-anchor="middle" fill="#123a6b" font-family="ui-monospace, SFMono-Regular, Menlo, Consolas, monospace" font-size="13">&lt;expression&gt;</text>
<line x1="276" y1="92" x2="294" y2="92" stroke="#6a7d95" stroke-width="2"/>
<rect x="294" y="78" width="40" height="28" rx="8" fill="#eef7ea" stroke="#8fbc8f" stroke-width="1.5"/>
<text x="314.0" y="97" text-anchor="middle" fill="#204b24" font-family="ui-monospace, SFMono-Regular, Menlo, Consolas, monospace" font-size="13">)</text>
<line x1="334" y1="92" x2="352" y2="92" stroke="#6a7d95" stroke-width="2"/>
<rect x="352" y="78" width="74" height="28" rx="8" fill="#e9f2ff" stroke="#8cb0e8" stroke-width="1.5"/>
<text x="389.0" y="97" text-anchor="middle" fill="#123a6b" font-family="ui-monospace, SFMono-Regular, Menlo, Consolas, monospace" font-size="13">&lt;block&gt;</text>
<line x1="426" y1="92" x2="444" y2="92" stroke="#6a7d95" stroke-width="2"/>
<line x1="444" y1="92" x2="462" y2="92" stroke="#6a7d95" stroke-width="2"/>
<line x1="604" y1="92" x2="622" y2="92" stroke="#6a7d95" stroke-width="2"/>
<rect x="462" y="78" width="50" height="28" rx="8" fill="#eef7ea" stroke="#8fbc8f" stroke-width="1.5"/>
<text x="487.0" y="97" text-anchor="middle" fill="#204b24" font-family="ui-monospace, SFMono-Regular, Menlo, Consolas, monospace" font-size="13">else</text>
<line x1="512" y1="92" x2="530" y2="92" stroke="#6a7d95" stroke-width="2"/>
<rect x="530" y="78" width="74" height="28" rx="8" fill="#e9f2ff" stroke="#8cb0e8" stroke-width="1.5"/>
<text x="567.0" y="97" text-anchor="middle" fill="#123a6b" font-family="ui-monospace, SFMono-Regular, Menlo, Consolas, monospace" font-size="13">&lt;block&gt;</text>
<path d="M 444 92 L 444 72 A 6 6 0 0 1 450 66 L 616 66 A 6 6 0 0 1 622 72 L 622 92" fill="none" stroke="#6a7d95" stroke-width="2"/>
<line x1="622" y1="92" x2="640" y2="92" stroke="#6a7d95" stroke-width="2"/>
<circle cx="22" cy="92" r="4.5" fill="#6a7d95"/>
<circle cx="646" cy="92" r="4.5" fill="#6a7d95"/>
</svg>
