<svg xmlns="http://www.w3.org/2000/svg" width="418" height="202" viewBox="0 0 418 202" role="img" aria-labelledby="title-postfix desc-postfix">
<title id="title-postfix">&lt;postfix&gt; syntax diagram</title>
<desc id="desc-postfix">Syntax diagram for &lt;postfix&gt; generated from the grammar reference.</desc>
<rect x="0.5" y="0.5" width="417" height="201" rx="18" fill="#fbfcfe" stroke="#d6deea"/>
<text x="28" y="28" fill="#14324a" font-family="ui-monospace, SFMono-Regular, Menlo, Consolas, monospace" font-size="20" font-weight="700">&lt;postfix&gt;</text>
<line x1="28" y1="92" x2="46" y2="92" stroke="#6a7d95" stroke-width="2"/>
<rect x="46" y="78" width="90" height="28" rx="8" fill="#e9f2ff" stroke="#8cb0e8" stroke-width="1.5"/>
<text x="91.0" y="97" text-anchor="middle" fill="#123a6b" font-family="ui-monospace, SFMono-Regular, Menlo, Consolas, monospace" font-size="13">&lt;primary&gt;</text>
<line x1="136" y1="92" x2="154" y2="92" stroke="#6a7d95" stroke-width="2"/>
<line x1="154" y1="92" x2="172" y2="92" stroke="#6a7d95" stroke-width="2"/>
<line x1="354" y1="92" x2="372" y2="92" stroke="#6a7d95" stroke-width="2"/>
<rect x="190" y="78" width="122" height="28" rx="8" fill="#e9f2ff" stroke="#8cb0e8" stroke-width="1.5"/>
<text x="251.0" y="97" text-anchor="middle" fill="#123a6b" font-family="ui-monospace, SFMono-Regular, Menlo, Consolas, monospace" font-size="13">&lt;call-suffix&gt;</text>
<line x1="172" y1="92" x2="190" y2="92" stroke="#6a7d95" stroke-width="2"/>
<line x1="312" y1="92" x2="354" y2="92" stroke="#6a7d95" stroke-width="2"/>
<rect x="190" y="128" width="146" height="28" rx="8" fill="#e9f2ff" stroke="#8cb0e8" stroke-width="1.5"/>
<text x="263.0" y="147" text-anchor="middle" fill="#123a6b" font-family="ui-monospace, SFMono-Regular, Menlo, Consolas, monospace" font-size="13">&lt;postfix-update&gt;</text>
<path d="M 172 92 L 172 136 A 6 6 0 0 0 178 142 L 190 142" fill="none" stroke="#6a7d95" stroke-width="2"/>
<path d="M 336 142 L 348 142 A 6 6 0 0 0 354 136 L 354 92" fill="none" stroke="#6a7d95" stroke-width="2"/>
<path d="M 154 92 L 154 72 A 6 6 0 0 1 160 66 L 366 66 A 6 6 0 0 1 372 72 L 372 92" fill="none" stroke="#6a7d95" stroke-width="2"/>
<polygon points="188,61 178,66 188,71" fill="#6a7d95"/>
<line x1="372" y1="92" x2="390" y2="92" stroke="#6a7d95" stroke-width="2"/>
<circle cx="22" cy="92" r="4.5" fill="#6a7d95"/>
<circle cx="396" cy="92" r="4.5" fill="#6a7d95"/>
</svg>
