<svg xmlns="http://www.w3.org/2000/svg" width="204" height="180" viewBox="0 0 204 180" role="img" aria-labelledby="title-postfix_update desc-postfix_update">
<title id="title-postfix_update">&lt;postfix-update&gt; syntax diagram</title>
<desc id="desc-postfix_update">Syntax diagram for &lt;postfix-update&gt; generated from the grammar reference.</desc>
<rect x="0.5" y="0.5" width="203" height="179" rx="18" fill="#fbfcfe" stroke="#d6deea"/>
<text x="28" y="28" fill="#14324a" font-family="ui-monospace, SFMono-Regular, Menlo, Consolas, monospace" font-size="20" font-weight="700">&lt;postfix-update&gt;</text>
<line x1="28" y1="70" x2="46" y2="70" stroke="#6a7d95" stroke-width="2"/>
<rect x="64" y="56" width="40" height="28" rx="8" fill="#eef7ea" stroke="#8fbc8f" stroke-width="1.5"/>
<text x="84.0" y="75" text-anchor="middle" fill="#204b24" font-family="ui-monospace, SFMono-Regular, Menlo, Consolas, monospace" font-size="13">++</text>
<line x1="46" y1="70" x2="64" y2="70" stroke="#6a7d95" stroke-width="2"/>
<line x1="104" y1="70" x2="122" y2="70" stroke="#6a7d95" stroke-width="2"/>
<rect x="64" y="106" width="40" height="28" rx="8" fill="#eef7ea" stroke="#8fbc8f" stroke-width="1.5"/>
<text x="84.0" y="125" text-anchor="middle" fill="#204b24" font-family="ui-monospace, SFMono-Regular, Menlo, Consolas, monospace" font-size="13">--</text>
<path d="M 46 70 L 46 114 A 6 6 0 0 0 52 120 L 64 120" fill="none" stroke="#6a7d95" stroke-width="2"/>
<path d="M 104 120 L 116 120 A 6 6 0 0 0 122 114 L 122 70" fill="none" stroke="#6a7d95" stroke-width="2"/>
<line x1="122" y1="70" x2="140" y2="70" stroke="#6a7d95" stroke-width="2"/>
<circle cx="22" cy="70" r="4.5" fill="#6a7d95"/>
<circle cx="146" cy="70" r="4.5" fill="#6a7d95"/>
</svg>
