<svg xmlns="http://www.w3.org/2000/svg" width="352" height="152" viewBox="0 0 352 152" role="img" aria-labelledby="title-power desc-power">
<title id="title-power">&lt;power&gt; syntax diagram</title>
<desc id="desc-power">Syntax diagram for &lt;power&gt; generated from the grammar reference.</desc>
<rect x="0.5" y="0.5" width="351" height="151" rx="18" fill="#fbfcfe" stroke="#d6deea"/>
<text x="28" y="28" fill="#14324a" font-family="ui-monospace, SFMono-Regular, Menlo, Consolas, monospace" font-size="20" font-weight="700">&lt;power&gt;</text>
<line x1="28" y1="92" x2="46" y2="92" stroke="#6a7d95" stroke-width="2"/>
<rect x="46" y="78" width="74" height="28" rx="8" fill="#e9f2ff" stroke="#8cb0e8" stroke-width="1.5"/>
<text x="83.0" y="97" text-anchor="middle" fill="#123a6b" font-family="ui-monospace, SFMono-Regular, Menlo, Consolas, monospace" font-size="13">&lt;unary&gt;</text>
<line x1="120" y1="92" x2="138" y2="92" stroke="#6a7d95" stroke-width="2"/>
<line x1="138" y1="92" x2="156" y2="92" stroke="#6a7d95" stroke-width="2"/>
<line x1="288" y1="92" x2="306" y2="92" stroke="#6a7d95" stroke-width="2"/>
<rect x="156" y="78" width="40" height="28" rx="8" fill="#eef7ea" stroke="#8fbc8f" stroke-width="1.5"/>
<text x="176.0" y="97" text-anchor="middle" fill="#204b24" font-family="ui-monospace, SFMono-Regular, Menlo, Consolas, monospace" font-size="13">^</text>
<line x1="196" y1="92" x2="214" y2="92" stroke="#6a7d95" stroke-width="2"/>
<rect x="214" y="78" width="74" height="28" rx="8" fill="#e9f2ff" stroke="#8cb0e8" stroke-width="1.5"/>
<text x="251.0" y="97" text-anchor="middle" fill="#123a6b" font-family="ui-monospace, SFMono-Regular, Menlo, Consolas, monospace" font-size="13">&lt;power&gt;</text>
<path d="M 138 92 A 6 6 0 0 0 144 86 L 144 72 A 6 6 0 0 1 150 66 L 294 66 A 6 6 0 0 1 300 72 L 300 86 A 6 6 0 0 0 306 92" fill="none" stroke="#6a7d95" stroke-width="2"/>
<line x1="306" y1="92" x2="324" y2="92" stroke="#6a7d95" stroke-width="2"/>
<circle cx="22" cy="92" r="4.5" fill="#6a7d95"/>
<circle cx="330" cy="92" r="4.5" fill="#6a7d95"/>
</svg>
