<svg xmlns="http://www.w3.org/2000/svg" width="358" height="380" viewBox="0 0 358 380" role="img" aria-labelledby="title-primary desc-primary">
<title id="title-primary">&lt;primary&gt; syntax diagram</title>
<desc id="desc-primary">Syntax diagram for &lt;primary&gt; generated from the grammar reference.</desc>
<rect x="0.5" y="0.5" width="357" height="379" rx="18" fill="#fbfcfe" stroke="#d6deea"/>
<text x="28" y="28" fill="#14324a" font-family="ui-monospace, SFMono-Regular, Menlo, Consolas, monospace" font-size="20" font-weight="700">&lt;primary&gt;</text>
<line x1="28" y1="70" x2="46" y2="70" stroke="#6a7d95" stroke-width="2"/>
<rect x="64" y="56" width="82" height="28" rx="8" fill="#e9f2ff" stroke="#8cb0e8" stroke-width="1.5"/>
<text x="105.0" y="75" text-anchor="middle" fill="#123a6b" font-family="ui-monospace, SFMono-Regular, Menlo, Consolas, monospace" font-size="13">&lt;number&gt;</text>
<line x1="46" y1="70" x2="64" y2="70" stroke="#6a7d95" stroke-width="2"/>
<line x1="146" y1="70" x2="312" y2="70" stroke="#6a7d95" stroke-width="2"/>
<rect x="64" y="106" width="82" height="28" rx="8" fill="#e9f2ff" stroke="#8cb0e8" stroke-width="1.5"/>
<text x="105.0" y="125" text-anchor="middle" fill="#123a6b" font-family="ui-monospace, SFMono-Regular, Menlo, Consolas, monospace" font-size="13">&lt;string&gt;</text>
<path d="M 46 70 L 46 114 A 6 6 0 0 0 52 120 L 64 120" fill="none" stroke="#6a7d95" stroke-width="2"/>
<path d="M 146 120 L 306 120 A 6 6 0 0 0 312 114 L 312 70" fill="none" stroke="#6a7d95" stroke-width="2"/>
<rect x="64" y="156" width="50" height="28" rx="8" fill="#eef7ea" stroke="#8fbc8f" stroke-width="1.5"/>
<text x="89.0" y="175" text-anchor="middle" fill="#204b24" font-family="ui-monospace, SFMono-Regular, Menlo, Consolas, monospace" font-size="13">true</text>
<path d="M 46 70 L 46 164 A 6 6 0 0 0 52 170 L 64 170" fill="none" stroke="#6a7d95" stroke-width="2"/>
<path d="M 114 170 L 306 170 A 6 6 0 0 0 312 164 L 312 70" fill="none" stroke="#6a7d95" stroke-width="2"/>
<rect x="64" y="206" width="58" height="28" rx="8" fill="#eef7ea" stroke="#8fbc8f" stroke-width="1.5"/>
<text x="93.0" y="225" text-anchor="middle" fill="#204b24" font-family="ui-monospace, SFMono-Regular, Menlo, Consolas, monospace" font-size="13">false</text>
<path d="M 46 70 L 46 214 A 6 6 0 0 0 52 220 L 64 220" fill="none" stroke="#6a7d95" stroke-width="2"/>
<path d="M 122 220 L 306 220 A 6 6 0 0 0 312 214 L 312 70" fill="none" stroke="#6a7d95" stroke-width="2"/>
<rect x="64" y="256" width="114" height="28" rx="8" fill="#e9f2ff" stroke="#8cb0e8" stroke-width="1.5"/>
<text x="121.0" y="275" text-anchor="middle" fill="#123a6b" font-family="ui-monospace, SFMono-Regular, Menlo, Consolas, monospace" font-size="13">&lt;identifier&gt;</text>
<path d="M 46 70 L 46 264 A 6 6 0 0 0 52 270 L 64 270" fill="none" stroke="#6a7d95" stroke-width="2"/>
<path d="M 178 270 L 306 270 A 6 6 0 0 0 312 264 L 312 70" fill="none" stroke="#6a7d95" stroke-width="2"/>
<rect x="64" y="306" width="40" height="28" rx="8" fill="#eef7ea" stroke="#8fbc8f" stroke-width="1.5"/>
<text x="84.0" y="325" text-anchor="middle" fill="#204b24" font-family="ui-monospace, SFMono-Regular, Menlo, Consolas, monospace" font-size="13">(</text>
<line x1="104" y1="320" x2="122" y2="320" stroke="#6a7d95" stroke-width="2"/>
<rect x="122" y="306" width="114" height="28" rx="8" fill="#e9f2ff" stroke="#8cb0e8" stroke-width="1.5"/>
<text x="179.0" y="325" text-anchor="middle" fill="#123a6b" font-family="ui-monospace, SFMono-Regular, Menlo, Consolas, monospace" font-size="13">&lt;expression&gt;</text>
<line x1="236" y1="320" x2="254" y2="320" stroke="#6a7d95" stroke-width="2"/>
<rect x="254" y="306" width="40" height="28" rx="8" fill="#eef7ea" stroke="#8fbc8f" stroke-width="1.5"/>
<text x="274.0" y="325" text-anchor="middle" fill="#204b24" font-family="ui-monospace, SFMono-Regular, Menlo, Consolas, monospace" font-size="13">)</text>
<path d="M 46 70 L 46 314 A 6 6 0 0 0 52 320 L 64 320" fill="none" stroke="#6a7d95" stroke-width="2"/>
<path d="M 294 320 L 306 320 A 6 6 0 0 0 312 314 L 312 70" fill="none" stroke="#6a7d95" stroke-width="2"/>
<line x1="312" y1="70" x2="330" y2="70" stroke="#6a7d95" stroke-width="2"/>
<circle cx="22" cy="70" r="4.5" fill="#6a7d95"/>
<circle cx="336" cy="70" r="4.5" fill="#6a7d95"/>
</svg>
