<svg xmlns="http://www.w3.org/2000/svg" width="294" height="152" viewBox="0 0 294 152" role="img" aria-labelledby="title-program desc-program">
<title id="title-program">&lt;program&gt; syntax diagram</title>
<desc id="desc-program">Syntax diagram for &lt;program&gt; generated from the grammar reference.</desc>
<rect x="0.5" y="0.5" width="293" height="151" rx="18" fill="#fbfcfe" stroke="#d6deea"/>
<text x="28" y="28" fill="#14324a" font-family="ui-monospace, SFMono-Regular, Menlo, Consolas, monospace" font-size="20" font-weight="700">&lt;program&gt;</text>
<line x1="28" y1="92" x2="46" y2="92" stroke="#6a7d95" stroke-width="2"/>
<line x1="46" y1="92" x2="64" y2="92" stroke="#6a7d95" stroke-width="2"/>
<line x1="170" y1="92" x2="188" y2="92" stroke="#6a7d95" stroke-width="2"/>
<rect x="64" y="78" width="106" height="28" rx="8" fill="#e9f2ff" stroke="#8cb0e8" stroke-width="1.5"/>
<text x="117.0" y="97" text-anchor="middle" fill="#123a6b" font-family="ui-monospace, SFMono-Regular, Menlo, Consolas, monospace" font-size="13">&lt;statement&gt;</text>
<path d="M 46 92 L 46 72 A 6 6 0 0 1 52 66 L 182 66 A 6 6 0 0 1 188 72 L 188 92" fill="none" stroke="#6a7d95" stroke-width="2"/>
<polygon points="80,61 70,66 80,71" fill="#6a7d95"/>
<line x1="188" y1="92" x2="206" y2="92" stroke="#6a7d95" stroke-width="2"/>
<rect x="206" y="78" width="42" height="28" rx="8" fill="#f5f7fb" stroke="#c9d2de" stroke-width="1.5"/>
<text x="227.0" y="97" text-anchor="middle" fill="#445468" font-family="ui-monospace, SFMono-Regular, Menlo, Consolas, monospace" font-size="13">EOF</text>
<line x1="248" y1="92" x2="266" y2="92" stroke="#6a7d95" stroke-width="2"/>
<circle cx="22" cy="92" r="4.5" fill="#6a7d95"/>
<circle cx="272" cy="92" r="4.5" fill="#6a7d95"/>
</svg>
