<svg xmlns="http://www.w3.org/2000/svg" width="384" height="152" viewBox="0 0 384 152" role="img" aria-labelledby="title-return_stmt desc-return_stmt">
<title id="title-return_stmt">&lt;return-stmt&gt; syntax diagram</title>
<desc id="desc-return_stmt">Syntax diagram for &lt;return-stmt&gt; generated from the grammar reference.</desc>
<rect x="0.5" y="0.5" width="383" height="151" rx="18" fill="#fbfcfe" stroke="#d6deea"/>
<text x="28" y="28" fill="#14324a" font-family="ui-monospace, SFMono-Regular, Menlo, Consolas, monospace" font-size="20" font-weight="700">&lt;return-stmt&gt;</text>
<line x1="28" y1="92" x2="46" y2="92" stroke="#6a7d95" stroke-width="2"/>
<rect x="46" y="78" width="66" height="28" rx="8" fill="#eef7ea" stroke="#8fbc8f" stroke-width="1.5"/>
<text x="79.0" y="97" text-anchor="middle" fill="#204b24" font-family="ui-monospace, SFMono-Regular, Menlo, Consolas, monospace" font-size="13">return</text>
<line x1="112" y1="92" x2="130" y2="92" stroke="#6a7d95" stroke-width="2"/>
<line x1="130" y1="92" x2="148" y2="92" stroke="#6a7d95" stroke-width="2"/>
<line x1="262" y1="92" x2="280" y2="92" stroke="#6a7d95" stroke-width="2"/>
<rect x="148" y="78" width="114" height="28" rx="8" fill="#e9f2ff" stroke="#8cb0e8" stroke-width="1.5"/>
<text x="205.0" y="97" text-anchor="middle" fill="#123a6b" font-family="ui-monospace, SFMono-Regular, Menlo, Consolas, monospace" font-size="13">&lt;expression&gt;</text>
<path d="M 130 92 L 130 72 A 6 6 0 0 1 136 66 L 274 66 A 6 6 0 0 1 280 72 L 280 92" fill="none" stroke="#6a7d95" stroke-width="2"/>
<line x1="280" y1="92" x2="298" y2="92" stroke="#6a7d95" stroke-width="2"/>
<rect x="298" y="78" width="40" height="28" rx="8" fill="#eef7ea" stroke="#8fbc8f" stroke-width="1.5"/>
<text x="318.0" y="97" text-anchor="middle" fill="#204b24" font-family="ui-monospace, SFMono-Regular, Menlo, Consolas, monospace" font-size="13">;</text>
<line x1="338" y1="92" x2="356" y2="92" stroke="#6a7d95" stroke-width="2"/>
<circle cx="22" cy="92" r="4.5" fill="#6a7d95"/>
<circle cx="362" cy="92" r="4.5" fill="#6a7d95"/>
</svg>
