<svg xmlns="http://www.w3.org/2000/svg" width="536" height="130" viewBox="0 0 536 130" role="img" aria-labelledby="title-scalar_typed_decl_core desc-scalar_typed_decl_core">
<title id="title-scalar_typed_decl_core">&lt;scalar-typed-decl-core&gt; syntax diagram</title>
<desc id="desc-scalar_typed_decl_core">Syntax diagram for &lt;scalar-typed-decl-core&gt; generated from the grammar reference.</desc>
<rect x="0.5" y="0.5" width="535" height="129" rx="18" fill="#fbfcfe" stroke="#d6deea"/>
<text x="28" y="28" fill="#14324a" font-family="ui-monospace, SFMono-Regular, Menlo, Consolas, monospace" font-size="20" font-weight="700">&lt;scalar-typed-decl-core&gt;</text>
<line x1="28" y1="70" x2="46" y2="70" stroke="#6a7d95" stroke-width="2"/>
<rect x="46" y="56" width="122" height="28" rx="8" fill="#e9f2ff" stroke="#8cb0e8" stroke-width="1.5"/>
<text x="107.0" y="75" text-anchor="middle" fill="#123a6b" font-family="ui-monospace, SFMono-Regular, Menlo, Consolas, monospace" font-size="13">&lt;scalar-type&gt;</text>
<line x1="168" y1="70" x2="186" y2="70" stroke="#6a7d95" stroke-width="2"/>
<rect x="186" y="56" width="114" height="28" rx="8" fill="#e9f2ff" stroke="#8cb0e8" stroke-width="1.5"/>
<text x="243.0" y="75" text-anchor="middle" fill="#123a6b" font-family="ui-monospace, SFMono-Regular, Menlo, Consolas, monospace" font-size="13">&lt;identifier&gt;</text>
<line x1="300" y1="70" x2="318" y2="70" stroke="#6a7d95" stroke-width="2"/>
<rect x="318" y="56" width="40" height="28" rx="8" fill="#eef7ea" stroke="#8fbc8f" stroke-width="1.5"/>
<text x="338.0" y="75" text-anchor="middle" fill="#204b24" font-family="ui-monospace, SFMono-Regular, Menlo, Consolas, monospace" font-size="13">=</text>
<line x1="358" y1="70" x2="376" y2="70" stroke="#6a7d95" stroke-width="2"/>
<rect x="376" y="56" width="114" height="28" rx="8" fill="#e9f2ff" stroke="#8cb0e8" stroke-width="1.5"/>
<text x="433.0" y="75" text-anchor="middle" fill="#123a6b" font-family="ui-monospace, SFMono-Regular, Menlo, Consolas, monospace" font-size="13">&lt;expression&gt;</text>
<line x1="490" y1="70" x2="508" y2="70" stroke="#6a7d95" stroke-width="2"/>
<circle cx="22" cy="70" r="4.5" fill="#6a7d95"/>
<circle cx="514" cy="70" r="4.5" fill="#6a7d95"/>
</svg>
