<svg xmlns="http://www.w3.org/2000/svg" width="180" height="230" viewBox="0 0 180 230" role="img" aria-labelledby="title-scalar_type desc-scalar_type">
<title id="title-scalar_type">&lt;scalar-type&gt; syntax diagram</title>
<desc id="desc-scalar_type">Syntax diagram for &lt;scalar-type&gt; generated from the grammar reference.</desc>
<rect x="0.5" y="0.5" width="179" height="229" rx="18" fill="#fbfcfe" stroke="#d6deea"/>
<text x="28" y="28" fill="#14324a" font-family="ui-monospace, SFMono-Regular, Menlo, Consolas, monospace" font-size="20" font-weight="700">&lt;scalar-type&gt;</text>
<line x1="28" y1="70" x2="46" y2="70" stroke="#6a7d95" stroke-width="2"/>
<rect x="64" y="56" width="42" height="28" rx="8" fill="#eef7ea" stroke="#8fbc8f" stroke-width="1.5"/>
<text x="85.0" y="75" text-anchor="middle" fill="#204b24" font-family="ui-monospace, SFMono-Regular, Menlo, Consolas, monospace" font-size="13">int</text>
<line x1="46" y1="70" x2="64" y2="70" stroke="#6a7d95" stroke-width="2"/>
<line x1="106" y1="70" x2="132" y2="70" stroke="#6a7d95" stroke-width="2"/>
<rect x="64" y="106" width="42" height="28" rx="8" fill="#eef7ea" stroke="#8fbc8f" stroke-width="1.5"/>
<text x="85.0" y="125" text-anchor="middle" fill="#204b24" font-family="ui-monospace, SFMono-Regular, Menlo, Consolas, monospace" font-size="13">str</text>
<path d="M 46 70 A 6 6 0 0 1 52 76 L 52 114 A 6 6 0 0 0 58 120 L 64 120" fill="none" stroke="#6a7d95" stroke-width="2"/>
<path d="M 106 120 L 120 120 A 6 6 0 0 0 126 114 L 126 76 A 6 6 0 0 1 132 70 " fill="none" stroke="#6a7d95" stroke-width="2"/>
<rect x="64" y="156" width="50" height="28" rx="8" fill="#eef7ea" stroke="#8fbc8f" stroke-width="1.5"/>
<text x="89.0" y="175" text-anchor="middle" fill="#204b24" font-family="ui-monospace, SFMono-Regular, Menlo, Consolas, monospace" font-size="13">bool</text>
<path d="M 46 70 A 6 6 0 0 1 52 76 L 52 164 A 6 6 0 0 0 58 170 L 64 170" fill="none" stroke="#6a7d95" stroke-width="2"/>
<path d="M 114 170 L 120 170 A 6 6 0 0 0 126 164 L 126 76 A 6 6 0 0 1 132 70 " fill="none" stroke="#6a7d95" stroke-width="2"/>
<line x1="132" y1="70" x2="150" y2="70" stroke="#6a7d95" stroke-width="2"/>
<circle cx="22" cy="70" r="4.5" fill="#6a7d95"/>
<circle cx="156" cy="70" r="4.5" fill="#6a7d95"/>
</svg>
