<svg xmlns="http://www.w3.org/2000/svg" width="404" height="202" viewBox="0 0 404 202" role="img" aria-labelledby="title-term desc-term">
<title id="title-term">&lt;term&gt; syntax diagram</title>
<desc id="desc-term">Syntax diagram for &lt;term&gt; generated from the grammar reference.</desc>
<rect x="0.5" y="0.5" width="403" height="201" rx="18" fill="#fbfcfe" stroke="#d6deea"/>
<text x="28" y="28" fill="#14324a" font-family="ui-monospace, SFMono-Regular, Menlo, Consolas, monospace" font-size="20" font-weight="700">&lt;term&gt;</text>
<line x1="28" y1="92" x2="46" y2="92" stroke="#6a7d95" stroke-width="2"/>
<rect x="46" y="78" width="82" height="28" rx="8" fill="#e9f2ff" stroke="#8cb0e8" stroke-width="1.5"/>
<text x="87.0" y="97" text-anchor="middle" fill="#123a6b" font-family="ui-monospace, SFMono-Regular, Menlo, Consolas, monospace" font-size="13">&lt;factor&gt;</text>
<line x1="128" y1="92" x2="146" y2="92" stroke="#6a7d95" stroke-width="2"/>
<line x1="146" y1="92" x2="164" y2="92" stroke="#6a7d95" stroke-width="2"/>
<line x1="340" y1="92" x2="358" y2="92" stroke="#6a7d95" stroke-width="2"/>
<rect x="182" y="78" width="40" height="28" rx="8" fill="#eef7ea" stroke="#8fbc8f" stroke-width="1.5"/>
<text x="202.0" y="97" text-anchor="middle" fill="#204b24" font-family="ui-monospace, SFMono-Regular, Menlo, Consolas, monospace" font-size="13">+</text>
<line x1="164" y1="92" x2="182" y2="92" stroke="#6a7d95" stroke-width="2"/>
<line x1="222" y1="92" x2="240" y2="92" stroke="#6a7d95" stroke-width="2"/>
<rect x="182" y="128" width="40" height="28" rx="8" fill="#eef7ea" stroke="#8fbc8f" stroke-width="1.5"/>
<text x="202.0" y="147" text-anchor="middle" fill="#204b24" font-family="ui-monospace, SFMono-Regular, Menlo, Consolas, monospace" font-size="13">-</text>
<path d="M 164 92 L 164 136 A 6 6 0 0 0 170 142 L 182 142" fill="none" stroke="#6a7d95" stroke-width="2"/>
<path d="M 222 142 L 234 142 A 6 6 0 0 0 240 136 L 240 92" fill="none" stroke="#6a7d95" stroke-width="2"/>
<line x1="240" y1="92" x2="258" y2="92" stroke="#6a7d95" stroke-width="2"/>
<rect x="258" y="78" width="82" height="28" rx="8" fill="#e9f2ff" stroke="#8cb0e8" stroke-width="1.5"/>
<text x="299.0" y="97" text-anchor="middle" fill="#123a6b" font-family="ui-monospace, SFMono-Regular, Menlo, Consolas, monospace" font-size="13">&lt;factor&gt;</text>
<path d="M 146 92 L 146 72 A 6 6 0 0 1 152 66 L 352 66 A 6 6 0 0 1 358 72 L 358 92" fill="none" stroke="#6a7d95" stroke-width="2"/>
<polygon points="180,61 170,66 180,71" fill="#6a7d95"/>
<line x1="358" y1="92" x2="376" y2="92" stroke="#6a7d95" stroke-width="2"/>
<circle cx="22" cy="92" r="4.5" fill="#6a7d95"/>
<circle cx="382" cy="92" r="4.5" fill="#6a7d95"/>
</svg>
