<svg xmlns="http://www.w3.org/2000/svg" width="250" height="180" viewBox="0 0 250 180" role="img" aria-labelledby="title-type desc-type">
<title id="title-type">&lt;type&gt; syntax diagram</title>
<desc id="desc-type">Syntax diagram for &lt;type&gt; generated from the grammar reference.</desc>
<rect x="0.5" y="0.5" width="249" height="179" rx="18" fill="#fbfcfe" stroke="#d6deea"/>
<text x="28" y="28" fill="#14324a" font-family="ui-monospace, SFMono-Regular, Menlo, Consolas, monospace" font-size="20" font-weight="700">&lt;type&gt;</text>
<line x1="28" y1="70" x2="46" y2="70" stroke="#6a7d95" stroke-width="2"/>
<rect x="64" y="56" width="122" height="28" rx="8" fill="#e9f2ff" stroke="#8cb0e8" stroke-width="1.5"/>
<text x="125.0" y="75" text-anchor="middle" fill="#123a6b" font-family="ui-monospace, SFMono-Regular, Menlo, Consolas, monospace" font-size="13">&lt;scalar-type&gt;</text>
<line x1="46" y1="70" x2="64" y2="70" stroke="#6a7d95" stroke-width="2"/>
<line x1="186" y1="70" x2="204" y2="70" stroke="#6a7d95" stroke-width="2"/>
<rect x="64" y="106" width="114" height="28" rx="8" fill="#e9f2ff" stroke="#8cb0e8" stroke-width="1.5"/>
<text x="121.0" y="125" text-anchor="middle" fill="#123a6b" font-family="ui-monospace, SFMono-Regular, Menlo, Consolas, monospace" font-size="13">&lt;array-type&gt;</text>
<path d="M 46 70 A 6 6 0 0 1 52 76 L 52 114 A 6 6 0 0 0 58 120 L 64 120" fill="none" stroke="#6a7d95" stroke-width="2"/>
<path d="M 178 120 L 192 120 A 6 6 0 0 0 198 114 L 198 76 A 6 6 0 0 1 204 70 " fill="none" stroke="#6a7d95" stroke-width="2"/>
<line x1="204" y1="70" x2="222" y2="70" stroke="#6a7d95" stroke-width="2"/>
<circle cx="22" cy="70" r="4.5" fill="#6a7d95"/>
<circle cx="228" cy="70" r="4.5" fill="#6a7d95"/>
</svg>
