<svg xmlns="http://www.w3.org/2000/svg" width="480" height="130" viewBox="0 0 480 130" role="img" aria-labelledby="title-typed_decl_core desc-typed_decl_core">
<title id="title-typed_decl_core">&lt;typed-decl-core&gt; syntax diagram</title>
<desc id="desc-typed_decl_core">Syntax diagram for &lt;typed-decl-core&gt; generated from the grammar reference.</desc>
<rect x="0.5" y="0.5" width="479" height="129" rx="18" fill="#fbfcfe" stroke="#d6deea"/>
<text x="28" y="28" fill="#14324a" font-family="ui-monospace, SFMono-Regular, Menlo, Consolas, monospace" font-size="20" font-weight="700">&lt;typed-decl-core&gt;</text>
<line x1="28" y1="70" x2="46" y2="70" stroke="#6a7d95" stroke-width="2"/>
<rect x="46" y="56" width="66" height="28" rx="8" fill="#e9f2ff" stroke="#8cb0e8" stroke-width="1.5"/>
<text x="79.0" y="75" text-anchor="middle" fill="#123a6b" font-family="ui-monospace, SFMono-Regular, Menlo, Consolas, monospace" font-size="13">&lt;type&gt;</text>
<line x1="112" y1="70" x2="130" y2="70" stroke="#6a7d95" stroke-width="2"/>
<rect x="130" y="56" width="114" height="28" rx="8" fill="#e9f2ff" stroke="#8cb0e8" stroke-width="1.5"/>
<text x="187.0" y="75" text-anchor="middle" fill="#123a6b" font-family="ui-monospace, SFMono-Regular, Menlo, Consolas, monospace" font-size="13">&lt;identifier&gt;</text>
<line x1="244" y1="70" x2="262" y2="70" stroke="#6a7d95" stroke-width="2"/>
<rect x="262" y="56" width="40" height="28" rx="8" fill="#eef7ea" stroke="#8fbc8f" stroke-width="1.5"/>
<text x="282.0" y="75" text-anchor="middle" fill="#204b24" font-family="ui-monospace, SFMono-Regular, Menlo, Consolas, monospace" font-size="13">=</text>
<line x1="302" y1="70" x2="320" y2="70" stroke="#6a7d95" stroke-width="2"/>
<rect x="320" y="56" width="114" height="28" rx="8" fill="#e9f2ff" stroke="#8cb0e8" stroke-width="1.5"/>
<text x="377.0" y="75" text-anchor="middle" fill="#123a6b" font-family="ui-monospace, SFMono-Regular, Menlo, Consolas, monospace" font-size="13">&lt;expression&gt;</text>
<line x1="434" y1="70" x2="452" y2="70" stroke="#6a7d95" stroke-width="2"/>
<circle cx="22" cy="70" r="4.5" fill="#6a7d95"/>
<circle cx="458" cy="70" r="4.5" fill="#6a7d95"/>
</svg>
