<svg xmlns="http://www.w3.org/2000/svg" width="296" height="230" viewBox="0 0 296 230" role="img" aria-labelledby="title-unary desc-unary">
<title id="title-unary">&lt;unary&gt; syntax diagram</title>
<desc id="desc-unary">Syntax diagram for &lt;unary&gt; generated from the grammar reference.</desc>
<rect x="0.5" y="0.5" width="295" height="229" rx="18" fill="#fbfcfe" stroke="#d6deea"/>
<text x="28" y="28" fill="#14324a" font-family="ui-monospace, SFMono-Regular, Menlo, Consolas, monospace" font-size="20" font-weight="700">&lt;unary&gt;</text>
<line x1="28" y1="70" x2="46" y2="70" stroke="#6a7d95" stroke-width="2"/>
<rect x="82" y="56" width="40" height="28" rx="8" fill="#eef7ea" stroke="#8fbc8f" stroke-width="1.5"/>
<text x="102.0" y="75" text-anchor="middle" fill="#204b24" font-family="ui-monospace, SFMono-Regular, Menlo, Consolas, monospace" font-size="13">-</text>
<line x1="64" y1="70" x2="82" y2="70" stroke="#6a7d95" stroke-width="2"/>
<line x1="122" y1="70" x2="140" y2="70" stroke="#6a7d95" stroke-width="2"/>
<rect x="82" y="106" width="40" height="28" rx="8" fill="#eef7ea" stroke="#8fbc8f" stroke-width="1.5"/>
<text x="102.0" y="125" text-anchor="middle" fill="#204b24" font-family="ui-monospace, SFMono-Regular, Menlo, Consolas, monospace" font-size="13">!</text>
<path d="M 64 70 L 64 114 A 6 6 0 0 0 70 120 L 82 120" fill="none" stroke="#6a7d95" stroke-width="2"/>
<path d="M 122 120 L 134 120 A 6 6 0 0 0 140 114 L 140 70" fill="none" stroke="#6a7d95" stroke-width="2"/>
<line x1="140" y1="70" x2="158" y2="70" stroke="#6a7d95" stroke-width="2"/>
<rect x="158" y="56" width="74" height="28" rx="8" fill="#e9f2ff" stroke="#8cb0e8" stroke-width="1.5"/>
<text x="195.0" y="75" text-anchor="middle" fill="#123a6b" font-family="ui-monospace, SFMono-Regular, Menlo, Consolas, monospace" font-size="13">&lt;unary&gt;</text>
<line x1="46" y1="70" x2="64" y2="70" stroke="#6a7d95" stroke-width="2"/>
<line x1="232" y1="70" x2="250" y2="70" stroke="#6a7d95" stroke-width="2"/>
<rect x="64" y="156" width="90" height="28" rx="8" fill="#e9f2ff" stroke="#8cb0e8" stroke-width="1.5"/>
<text x="109.0" y="175" text-anchor="middle" fill="#123a6b" font-family="ui-monospace, SFMono-Regular, Menlo, Consolas, monospace" font-size="13">&lt;postfix&gt;</text>
<path d="M 46 70 L 46 164 A 6 6 0 0 0 52 170 L 64 170" fill="none" stroke="#6a7d95" stroke-width="2"/>
<path d="M 154 170 L 244 170 A 6 6 0 0 0 250 164 L 250 70" fill="none" stroke="#6a7d95" stroke-width="2"/>
<line x1="250" y1="70" x2="268" y2="70" stroke="#6a7d95" stroke-width="2"/>
<circle cx="22" cy="70" r="4.5" fill="#6a7d95"/>
<circle cx="274" cy="70" r="4.5" fill="#6a7d95"/>
</svg>
