<svg xmlns="http://www.w3.org/2000/svg" width="490" height="130" viewBox="0 0 490 130" role="img" aria-labelledby="title-while_stmt desc-while_stmt">
<title id="title-while_stmt">&lt;while-stmt&gt; syntax diagram</title>
<desc id="desc-while_stmt">Syntax diagram for &lt;while-stmt&gt; generated from the grammar reference.</desc>
<rect x="0.5" y="0.5" width="489" height="129" rx="18" fill="#fbfcfe" stroke="#d6deea"/>
<text x="28" y="28" fill="#14324a" font-family="ui-monospace, SFMono-Regular, Menlo, Consolas, monospace" font-size="20" font-weight="700">&lt;while-stmt&gt;</text>
<line x1="28" y1="70" x2="46" y2="70" stroke="#6a7d95" stroke-width="2"/>
<rect x="46" y="56" width="58" height="28" rx="8" fill="#eef7ea" stroke="#8fbc8f" stroke-width="1.5"/>
<text x="75.0" y="75" text-anchor="middle" fill="#204b24" font-family="ui-monospace, SFMono-Regular, Menlo, Consolas, monospace" font-size="13">while</text>
<line x1="104" y1="70" x2="122" y2="70" stroke="#6a7d95" stroke-width="2"/>
<rect x="122" y="56" width="40" height="28" rx="8" fill="#eef7ea" stroke="#8fbc8f" stroke-width="1.5"/>
<text x="142.0" y="75" text-anchor="middle" fill="#204b24" font-family="ui-monospace, SFMono-Regular, Menlo, Consolas, monospace" font-size="13">(</text>
<line x1="162" y1="70" x2="180" y2="70" stroke="#6a7d95" stroke-width="2"/>
<rect x="180" y="56" width="114" height="28" rx="8" fill="#e9f2ff" stroke="#8cb0e8" stroke-width="1.5"/>
<text x="237.0" y="75" text-anchor="middle" fill="#123a6b" font-family="ui-monospace, SFMono-Regular, Menlo, Consolas, monospace" font-size="13">&lt;expression&gt;</text>
<line x1="294" y1="70" x2="312" y2="70" stroke="#6a7d95" stroke-width="2"/>
<rect x="312" y="56" width="40" height="28" rx="8" fill="#eef7ea" stroke="#8fbc8f" stroke-width="1.5"/>
<text x="332.0" y="75" text-anchor="middle" fill="#204b24" font-family="ui-monospace, SFMono-Regular, Menlo, Consolas, monospace" font-size="13">)</text>
<line x1="352" y1="70" x2="370" y2="70" stroke="#6a7d95" stroke-width="2"/>
<rect x="370" y="56" width="74" height="28" rx="8" fill="#e9f2ff" stroke="#8cb0e8" stroke-width="1.5"/>
<text x="407.0" y="75" text-anchor="middle" fill="#123a6b" font-family="ui-monospace, SFMono-Regular, Menlo, Consolas, monospace" font-size="13">&lt;block&gt;</text>
<line x1="444" y1="70" x2="462" y2="70" stroke="#6a7d95" stroke-width="2"/>
<circle cx="22" cy="70" r="4.5" fill="#6a7d95"/>
<circle cx="468" cy="70" r="4.5" fill="#6a7d95"/>
</svg>
