<?xml version="1.0" encoding="UTF-8"?>
<svg id="Layer_1" data-name="Layer 1" xmlns="http://www.w3.org/2000/svg" viewBox="0 0 445.27 500.76">
  <defs>
    <style>
      .cls-1 {
        fill: #c2c1c0;
      }

      .cls-2 {
        fill: #4c4c4d;
      }

      .cls-3 {
        fill: #5b5857;
        stroke: #514e4c;
        stroke-miterlimit: 10;
        stroke-width: 20px;
      }
    </style>
  </defs>
  <path class="cls-3" d="M435.27,353.94v-207.11c0-11.89-6.34-22.87-16.63-28.81L239.27,14.46c-10.29-5.94-22.98-5.94-33.27,0L26.63,118.01c-10.29,5.94-16.63,16.93-16.63,28.81v207.11c0,11.89,6.34,22.87,16.63,28.81l179.36,103.56c10.29,5.94,22.98,5.94,33.27,0l179.36-103.56c10.29-5.94,16.63-16.93,16.63-28.81Z"/>
  <path class="cls-2" d="M238.08,475.36l173.29-100.05c9.95-5.74,16.07-16.35,16.07-27.84v-200.1c0-5.61-1.47-11-4.12-15.73L23.82,367.78c2.43,2.97,5.39,5.54,8.82,7.52l173.29,100.05c9.95,5.74,22.2,5.74,32.14,0Z"/>
  <g>
    <path class="cls-2" d="M62.68,325.47v-70.99l-34.47-20.19,7.34-12.85,27.13,16.11v-57.73h18.36v68.54l34.27,20.2-7.14,12.24-27.13-15.71v60.38h-18.36Z"/>
    <path class="cls-2" d="M143.46,325.47v-145.65h18.36l35.9,25.7,37.74-25.7h18.36v145.65h-18.36v-125.45l-37.74,25.29-35.9-25.09v125.25h-18.36Z"/>
    <path class="cls-2" d="M331.54,325.47v-89.75c-7.89-.82-15.6-3.02-23.15-6.63-7.55-3.6-14.15-9.35-19.79-17.24-5.64-7.89-9.56-18.56-11.73-32.03h19.38c2.17,10.74,5.85,19.69,11.02,26.82,5.17,7.14,13.26,11.46,24.27,12.95v-39.78h19.58v39.78c11.01-1.5,19.1-5.81,24.27-12.95,5.17-7.14,8.84-16.08,11.02-26.82h19.38c-2.18,13.46-6.09,24.14-11.73,32.03-5.65,7.89-12.21,13.64-19.69,17.24-7.48,3.6-15.23,5.81-23.25,6.63v89.75h-19.58Z"/>
  </g>
  <g>
    <path class="cls-1" d="M69.99,331.17v-70.99l-34.47-20.19,7.34-12.85,27.13,16.11v-57.73h18.36v68.54l34.27,20.2-7.14,12.24-27.13-15.71v60.38h-18.36Z"/>
    <path class="cls-1" d="M150.77,331.17v-145.65h18.36l35.9,25.7,37.74-25.7h18.36v145.65h-18.36v-125.45l-37.74,25.29-35.9-25.09v125.25h-18.36Z"/>
    <path class="cls-1" d="M338.84,331.17v-89.75c-7.89-.82-15.6-3.02-23.15-6.63-7.55-3.6-14.15-9.35-19.79-17.24-5.64-7.89-9.56-18.56-11.73-32.03h19.38c2.17,10.74,5.85,19.69,11.02,26.82,5.17,7.14,13.26,11.46,24.27,12.95v-39.78h19.58v39.78c11.01-1.5,19.1-5.81,24.27-12.95,5.17-7.14,8.84-16.08,11.02-26.82h19.38c-2.18,13.46-6.09,24.14-11.73,32.03-5.65,7.89-12.21,13.64-19.69,17.24-7.48,3.6-15.23,5.81-23.25,6.63v89.75h-19.58Z"/>
  </g>
</svg>